<?xml version="1.0" encoding="UTF-8" standalone="no"?>
<!DOCTYPE svg PUBLIC "-//W3C//DTD SVG 1.1//EN" "http://www.w3.org/Graphics/SVG/1.1/DTD/svg11.dtd">
<svg width="100%" height="100%" viewBox="0 0 596 842" version="1.1" xmlns="http://www.w3.org/2000/svg" xmlns:xlink="http://www.w3.org/1999/xlink" xml:space="preserve" xmlns:serif="http://www.serif.com/" style="fill-rule:evenodd;clip-rule:evenodd;stroke-linecap:square;stroke-linejoin:round;stroke-miterlimit:10;">
    <g transform="matrix(1,0,0,1,0,-514.374)">
        <path d="M289.413,692.252L261.233,688.906L283.052,664.042L289.413,692.252Z" style="fill:none;stroke:black;stroke-width:2.4px;"/>
    </g>
    <g transform="matrix(1,0,0,1,0,-513.386)">
        <path d="M271.32,714.756L289.413,691.264L327.149,670.094L283.052,663.054L281.495,640.55" style="fill:none;stroke:black;stroke-width:2.4px;"/>
    </g>
    <g transform="matrix(-0.169281,-0.985568,-0.985568,0.169281,1070.38,341.766)">
        <path d="M308.202,701.182L340.61,701.182" style="fill:none;stroke:black;stroke-width:2.4px;"/>
    </g>
    <g transform="matrix(1,0,0,1,0,-502.227)">
        <path d="M353.457,654.344L327.149,658.935L331.653,689.803" style="fill:none;stroke:black;stroke-width:2.4px;"/>
    </g>
    <g transform="matrix(0.99912,0.0419404,0.0419404,-0.99912,-28.833,830.212)">
        <path d="M246.159,693.026L283.068,693.026" style="fill:none;stroke:black;stroke-width:2.4px;stroke-linecap:butt;"/>
    </g>
    <g transform="matrix(1,0,0,1,0,-479.018)">
        <path d="M252.544,672.193L261.233,653.55L243.724,648.745" style="fill:none;stroke:black;stroke-width:2.4px;"/>
    </g>
    <g transform="matrix(0.562817,0.826582,0.826582,-0.562817,-414.208,311.478)">
        <path d="M285.578,656.792L303.121,656.792" style="fill:none;stroke:black;stroke-width:2.4px;"/>
    </g>
    <g transform="matrix(-0.996615,0.0822101,0.0822101,0.996615,466.717,-512.072)">
        <ellipse cx="261.233" cy="667.387" rx="4.805" ry="4.805"/>
    </g>
    <g transform="matrix(-0.996615,0.0822101,0.0822101,0.996615,596.86,-553.079)">
        <circle cx="327.149" cy="685.211" r="4.805"/>
    </g>
    <g transform="matrix(-0.996615,0.0822101,0.0822101,0.996615,508.235,-563.511)">
        <ellipse cx="283.052" cy="692.253" rx="4.805" ry="4.805"/>
    </g>
    <g transform="matrix(-0.996615,0.0822101,0.0822101,0.996615,523.254,-507.708)">
        <circle cx="289.412" cy="664.042" r="4.805"/>
    </g>
    <g transform="matrix(1,0,0,1,0,-501.277)">
        <path d="M354.415,653.226L347.922,638.048L336.888,633.004L321.663,626.045L288.767,623.218L281.495,628.441L257.776,632.25L244.912,649.875L243.724,671.004L240.86,676.729L251.613,694.724L265.032,697.544L270.967,702.59L273.735,718.133L280.764,719.979L299.927,694.012L315.865,687.627L332.423,689.312L350.106,677.617L354.415,653.226Z" style="fill:none;stroke:black;stroke-width:3.56px;stroke-linecap:round;"/>
    </g>
    <g transform="matrix(1,0,0,1,0,-336.26)">
        <path d="M254.222,606.178C250.894,606.178 247.878,605.434 245.174,603.946C242.47,602.458 240.358,600.418 238.838,597.826C237.318,595.234 236.558,592.322 236.558,589.09C236.558,585.858 237.318,582.946 238.838,580.354C240.358,577.762 242.47,575.722 245.174,574.234C247.878,572.746 250.894,572.002 254.222,572.002C257.55,572.002 260.55,572.738 263.222,574.21C265.894,575.682 267.998,577.722 269.534,580.33C271.07,582.938 271.838,585.858 271.838,589.09C271.838,592.322 271.07,595.242 269.534,597.85C267.998,600.458 265.894,602.498 263.222,603.97C260.55,605.442 257.55,606.178 254.222,606.178ZM254.222,603.01C256.878,603.01 259.278,602.41 261.422,601.21C263.566,600.01 265.246,598.346 266.462,596.218C267.678,594.09 268.286,591.714 268.286,589.09C268.286,586.466 267.678,584.09 266.462,581.962C265.246,579.834 263.566,578.17 261.422,576.97C259.278,575.77 256.878,575.17 254.222,575.17C251.566,575.17 249.158,575.77 246.998,576.97C244.838,578.17 243.142,579.834 241.91,581.962C240.678,584.09 240.062,586.466 240.062,589.09C240.062,591.714 240.678,594.09 241.91,596.218C243.142,598.346 244.838,600.01 246.998,601.21C249.158,602.41 251.566,603.01 254.222,603.01Z" style="fill-rule:nonzero;"/>
    </g>
    <g transform="matrix(1,0,0,1,0,-336.26)">
        <path d="M233.239,603.897C232.584,604.278 231.89,604.614 231.158,604.906C229.03,605.754 226.718,606.178 224.222,606.178C220.894,606.178 217.894,605.442 215.222,603.97C212.55,602.498 210.454,600.458 208.934,597.85C207.414,595.242 206.654,592.322 206.654,589.09C206.654,585.858 207.414,582.938 208.934,580.33C210.454,577.722 212.558,575.682 215.246,574.21C217.934,572.738 220.942,572.002 224.27,572.002C226.766,572.002 229.07,572.418 231.182,573.25C231.913,573.538 232.607,573.873 233.261,574.253C232.76,574.932 232.292,575.643 231.857,576.384C231.741,576.582 231.628,576.781 231.518,576.981C229.447,575.774 227.063,575.17 224.366,575.17C221.71,575.17 219.294,575.778 217.118,576.994C214.942,578.21 213.238,579.874 212.006,581.986C210.774,584.098 210.158,586.466 210.158,589.09C210.158,591.714 210.774,594.082 212.006,596.194C213.238,598.306 214.942,599.97 217.118,601.186C219.294,602.402 221.71,603.01 224.366,603.01C227.073,603.01 229.456,602.404 231.515,601.192C231.626,601.395 231.74,601.596 231.857,601.796C232.286,602.526 232.746,603.227 233.239,603.897Z" style="fill-rule:nonzero;"/>
    </g>
    <g transform="matrix(1,0,0,1,0,-336.26)">
        <path d="M301.784,576.82C299.736,575.72 297.386,575.17 294.734,575.17C292.014,575.17 289.558,575.77 287.366,576.97C285.174,578.17 283.454,579.834 282.206,581.962C280.958,584.09 280.334,586.466 280.334,589.09C280.334,591.714 280.958,594.082 282.206,596.194C283.454,598.306 285.166,599.97 287.342,601.186C289.518,602.402 291.966,603.01 294.686,603.01C298.142,603.01 301.07,602.146 303.47,600.418L303.47,589.09L306.878,589.09L306.878,601.906C305.31,603.282 303.454,604.338 301.31,605.074C299.166,605.81 296.91,606.178 294.542,606.178C291.182,606.178 288.158,605.442 285.47,603.97C282.782,602.498 280.67,600.458 279.134,597.85C277.598,595.242 276.83,592.322 276.83,589.09C276.83,585.858 277.598,582.938 279.134,580.33C280.67,577.722 282.782,575.682 285.47,574.21C288.158,572.738 291.198,572.002 294.59,572.002C297.15,572.002 299.502,572.41 301.646,573.226C302.313,573.48 302.948,573.772 303.55,574.102C303.513,574.151 303.476,574.201 303.437,574.253C302.936,574.932 302.468,575.643 302.033,576.384C301.949,576.528 301.865,576.674 301.784,576.82Z" style="fill-rule:nonzero;"/>
    </g>
    <g transform="matrix(1,0,0,1,0,-336.26)">
        <rect x="314.75" y="572.29" width="3.552" height="33.6"/>
    </g>
    <g transform="matrix(1,0,0,1,0,-336.26)">
        <path d="M335.774,575.362L323.966,575.362L323.966,572.29L351.134,572.29L351.134,575.362L339.326,575.362L339.326,605.89L335.774,605.89L335.774,575.362Z" style="fill-rule:nonzero;"/>
    </g>
    <g transform="matrix(1,0,0,1,0,-336.26)">
        <path d="M371.006,606.178C367.678,606.178 364.662,605.434 361.958,603.946C359.254,602.458 357.142,600.418 355.622,597.826C354.102,595.234 353.342,592.322 353.342,589.09C353.342,585.858 354.102,582.946 355.622,580.354C357.142,577.762 359.254,575.722 361.958,574.234C364.662,572.746 367.678,572.002 371.006,572.002C374.334,572.002 377.334,572.738 380.006,574.21C382.678,575.682 384.782,577.722 386.318,580.33C387.854,582.938 388.622,585.858 388.622,589.09C388.622,592.322 387.854,595.242 386.318,597.85C384.782,600.458 382.678,602.498 380.006,603.97C377.334,605.442 374.334,606.178 371.006,606.178ZM371.006,603.01C373.662,603.01 376.062,602.41 378.206,601.21C380.35,600.01 382.03,598.346 383.246,596.218C384.462,594.09 385.07,591.714 385.07,589.09C385.07,586.466 384.462,584.09 383.246,581.962C382.03,579.834 380.35,578.17 378.206,576.97C376.062,575.77 373.662,575.17 371.006,575.17C368.35,575.17 365.942,575.77 363.782,576.97C361.622,578.17 359.926,579.834 358.694,581.962C357.462,584.09 356.846,586.466 356.846,589.09C356.846,591.714 357.462,594.09 358.694,596.218C359.926,598.346 361.622,600.01 363.782,601.21C365.942,602.41 368.35,603.01 371.006,603.01Z" style="fill-rule:nonzero;"/>
    </g>
</svg>
